<svg xmlns="http://www.w3.org/2000/svg" width="720" height="560" viewBox="0 0 720 560" role="img" aria-label="Train Event-Type Transitions">
<style>
  .bg { fill: #f8fafc; }
  .panel { fill: #ffffff; stroke: #dbe3ea; stroke-width: 1; }
  .title { font: 700 22px -apple-system, BlinkMacSystemFont, "Segoe UI", sans-serif; fill: #0f172a; }
  .subtitle { font: 13px -apple-system, BlinkMacSystemFont, "Segoe UI", sans-serif; fill: #64748b; }
  .axis { stroke: #94a3b8; stroke-width: 1; }
  .grid { stroke: #e2e8f0; stroke-width: 1; }
  .label { font: 12px -apple-system, BlinkMacSystemFont, "Segoe UI", sans-serif; fill: #475569; }
  .small { font: 11px -apple-system, BlinkMacSystemFont, "Segoe UI", sans-serif; fill: #64748b; }
  .legend { font: 12px -apple-system, BlinkMacSystemFont, "Segoe UI", sans-serif; fill: #334155; }
  .value { font: 700 12px -apple-system, BlinkMacSystemFont, "Segoe UI", sans-serif; fill: #0f172a; }
</style>
<rect class="bg" width="100%" height="100%" rx="16"/>
<rect class="panel" x="16" y="16" width="688" height="528" rx="14"/>
<text x="32" y="38" class="title">Train Event-Type Transitions</text>
<text x="32" y="58" class="subtitle">Consecutive event transitions within a session</text>
<text x="164" y="180.0" class="label" text-anchor="end">clicks</text><text x="164" y="272.0" class="label" text-anchor="end">carts</text><text x="164" y="364.0" class="label" text-anchor="end">orders</text><text x="226.0" y="112" class="label" text-anchor="middle">clicks</text><text x="318.0" y="112" class="label" text-anchor="middle">carts</text><text x="410.0" y="112" class="label" text-anchor="middle">orders</text><text x="318.0" y="74" class="small" text-anchor="middle">next event type</text><text x="64" y="268.0" class="small" transform="rotate(-90 64,268.0)">previous event type</text><rect x="180" y="130" width="86" height="86" rx="12" fill="#2563eb" fill-opacity="1.000"/><text x="223.0" y="174.0" class="value" text-anchor="middle">166,774,384</text><rect x="272" y="130" width="86" height="86" rx="12" fill="#2563eb" fill-opacity="0.371"/><text x="315.0" y="174.0" class="value" text-anchor="middle">15,065,503</text><rect x="364" y="130" width="86" height="86" rx="12" fill="#2563eb" fill-opacity="0.171"/><text x="407.0" y="174.0" class="value" text-anchor="middle">1,028,445</text><rect x="180" y="222" width="86" height="86" rx="12" fill="#2563eb" fill-opacity="0.353"/><text x="223.0" y="266.0" class="value" text-anchor="middle">13,175,163</text><rect x="272" y="222" width="86" height="86" rx="12" fill="#2563eb" fill-opacity="0.192"/><text x="315.0" y="266.0" class="value" text-anchor="middle">1,759,779</text><rect x="364" y="222" width="86" height="86" rx="12" fill="#2563eb" fill-opacity="0.185"/><text x="407.0" y="266.0" class="value" text-anchor="middle">1,475,482</text><rect x="180" y="314" width="86" height="86" rx="12" fill="#2563eb" fill-opacity="0.197"/><text x="223.0" y="358.0" class="value" text-anchor="middle">1,927,200</text><rect x="272" y="314" width="86" height="86" rx="12" fill="#2563eb" fill-opacity="0.113"/><text x="315.0" y="358.0" class="value" text-anchor="middle">33,053</text><rect x="364" y="314" width="86" height="86" rx="12" fill="#2563eb" fill-opacity="0.212"/><text x="407.0" y="358.0" class="value" text-anchor="middle">2,577,308</text></svg>
