<svg xmlns="http://www.w3.org/2000/svg" width="1120" height="560" viewBox="0 0 1120 560" role="img" aria-label="每日事件量">
<style>
  .bg { fill: #f8fafc; }
  .panel { fill: #ffffff; stroke: #dbe3ea; stroke-width: 1; }
  .title { font: 700 22px -apple-system, BlinkMacSystemFont, "Segoe UI", sans-serif; fill: #0f172a; }
  .subtitle { font: 13px -apple-system, BlinkMacSystemFont, "Segoe UI", sans-serif; fill: #64748b; }
  .axis { stroke: #94a3b8; stroke-width: 1; }
  .grid { stroke: #e2e8f0; stroke-width: 1; }
  .label { font: 12px -apple-system, BlinkMacSystemFont, "Segoe UI", sans-serif; fill: #475569; }
  .small { font: 11px -apple-system, BlinkMacSystemFont, "Segoe UI", sans-serif; fill: #64748b; }
  .legend { font: 12px -apple-system, BlinkMacSystemFont, "Segoe UI", sans-serif; fill: #334155; }
  .value { font: 700 12px -apple-system, BlinkMacSystemFont, "Segoe UI", sans-serif; fill: #0f172a; }
</style>
<rect class="bg" width="100%" height="100%" rx="16"/>
<rect class="panel" x="16" y="16" width="1088" height="528" rx="14"/>
<text x="32" y="38" class="title">每日事件量</text>
<text x="32" y="58" class="subtitle">展示 train/test 时间边界与事件量变化。</text>
<line x1="82" y1="468.0" x2="1086" y2="468.0" class="grid"/><text x="72" y="472.0" class="small" text-anchor="end">0</text><line x1="82" y1="392.8" x2="1086" y2="392.8" class="grid"/><text x="72" y="396.8" class="small" text-anchor="end">2,264,401</text><line x1="82" y1="317.6" x2="1086" y2="317.6" class="grid"/><text x="72" y="321.6" class="small" text-anchor="end">4,528,803</text><line x1="82" y1="242.4" x2="1086" y2="242.4" class="grid"/><text x="72" y="246.4" class="small" text-anchor="end">6,793,204</text><line x1="82" y1="167.2" x2="1086" y2="167.2" class="grid"/><text x="72" y="171.2" class="small" text-anchor="end">9,057,606</text><line x1="82" y1="92.0" x2="1086" y2="92.0" class="grid"/><text x="72" y="96.0" class="small" text-anchor="end">11,322,007</text><line x1="82" y1="92" x2="82" y2="468" class="axis"/><line x1="82" y1="468" x2="1086" y2="468" class="axis"/><polyline points="82.0,456.4 110.7,215.3 139.4,218.4 168.1,203.6 196.7,213.4 225.4,232.8 254.1,238.3 282.8,190.6 311.5,242.2 340.2,202.7 368.9,225.7 397.5,225.2 426.2,216.0 454.9,203.2 483.6,119.9 512.3,174.7 541.0,212.6 569.7,213.8 598.3,234.3 627.0,224.6 655.7,210.7 684.4,167.0 713.1,226.9 741.8,227.2 770.5,237.4 799.1,251.6 827.8,226.0 856.5,208.6 885.2,156.1 913.9,468.0 942.6,468.0 971.3,468.0 999.9,468.0 1028.6,468.0 1057.3,468.0 1086.0,468.0" fill="none" stroke="#334155" stroke-width="3" stroke-linecap="round" stroke-linejoin="round"/><polyline points="82.0,468.0 110.7,468.0 139.4,468.0 168.1,468.0 196.7,468.0 225.4,468.0 254.1,468.0 282.8,468.0 311.5,468.0 340.2,468.0 368.9,468.0 397.5,468.0 426.2,468.0 454.9,468.0 483.6,468.0 512.3,468.0 541.0,468.0 569.7,468.0 598.3,468.0 627.0,468.0 655.7,468.0 684.4,468.0 713.1,468.0 741.8,468.0 770.5,468.0 799.1,468.0 827.8,468.0 856.5,468.0 885.2,466.4 913.9,407.5 942.6,403.2 971.3,401.4 999.9,407.0 1028.6,410.9 1057.3,401.5 1086.0,386.1" fill="none" stroke="#0f766e" stroke-width="3" stroke-linecap="round" stroke-linejoin="round"/><text x="82.0" y="496" class="small" text-anchor="middle">07-31</text><text x="196.7" y="496" class="small" text-anchor="middle">08-04</text><text x="311.5" y="496" class="small" text-anchor="middle">08-08</text><text x="426.2" y="496" class="small" text-anchor="middle">08-12</text><text x="541.0" y="496" class="small" text-anchor="middle">08-16</text><text x="655.7" y="496" class="small" text-anchor="middle">08-20</text><text x="770.5" y="496" class="small" text-anchor="middle">08-24</text><text x="885.2" y="496" class="small" text-anchor="middle">08-28</text><text x="999.9" y="496" class="small" text-anchor="middle">09-01</text><text x="1086.0" y="496" class="small" text-anchor="middle">09-04</text><rect x="82" y="516" width="12" height="12" rx="3" fill="#334155"/><text x="100" y="526" class="legend">train</text><rect x="202" y="516" width="12" height="12" rx="3" fill="#0f766e"/><text x="220" y="526" class="legend">test</text></svg>
