<svg xmlns="http://www.w3.org/2000/svg" width="1080" height="560" viewBox="0 0 1080 560" role="img" aria-label="行为类型分布">
<style>
  .bg { fill: #f8fafc; }
  .panel { fill: #ffffff; stroke: #dbe3ea; stroke-width: 1; }
  .title { font: 700 22px -apple-system, BlinkMacSystemFont, "Segoe UI", sans-serif; fill: #0f172a; }
  .subtitle { font: 13px -apple-system, BlinkMacSystemFont, "Segoe UI", sans-serif; fill: #64748b; }
  .axis { stroke: #94a3b8; stroke-width: 1; }
  .grid { stroke: #e2e8f0; stroke-width: 1; }
  .label { font: 12px -apple-system, BlinkMacSystemFont, "Segoe UI", sans-serif; fill: #475569; }
  .small { font: 11px -apple-system, BlinkMacSystemFont, "Segoe UI", sans-serif; fill: #64748b; }
  .legend { font: 12px -apple-system, BlinkMacSystemFont, "Segoe UI", sans-serif; fill: #334155; }
  .value { font: 700 12px -apple-system, BlinkMacSystemFont, "Segoe UI", sans-serif; fill: #0f172a; }
</style>
<rect class="bg" width="100%" height="100%" rx="16"/>
<rect class="panel" x="16" y="16" width="1048" height="528" rx="14"/>
<text x="32" y="38" class="title">行为类型分布</text>
<text x="32" y="58" class="subtitle">clicks 占事件频率大头，orders 占指标权重大头。</text>
<line x1="76" y1="472.0" x2="1048" y2="472.0" class="grid"/><text x="66" y="476.0" class="small" text-anchor="end">0%</text><line x1="76" y1="396.0" x2="1048" y2="396.0" class="grid"/><text x="66" y="400.0" class="small" text-anchor="end">22%</text><line x1="76" y1="320.0" x2="1048" y2="320.0" class="grid"/><text x="66" y="324.0" class="small" text-anchor="end">43%</text><line x1="76" y1="244.0" x2="1048" y2="244.0" class="grid"/><text x="66" y="248.0" class="small" text-anchor="end">65%</text><line x1="76" y1="168.0" x2="1048" y2="168.0" class="grid"/><text x="66" y="172.0" class="small" text-anchor="end">86%</text><line x1="76" y1="92.0" x2="1048" y2="92.0" class="grid"/><text x="66" y="96.0" class="small" text-anchor="end">108%</text><line x1="76" y1="92" x2="76" y2="472" class="axis"/><line x1="76" y1="472" x2="1048" y2="472" class="axis"/><text x="232.0" y="500" class="label" text-anchor="middle">clicks</text><rect x="76.0" y="155.9" width="153.5" height="316.1" rx="5" fill="#334155"/><text x="152.8" y="149.9" class="small" text-anchor="middle">89.9%</text><rect x="234.5" y="158.5" width="153.5" height="313.5" rx="5" fill="#0f766e"/><text x="311.2" y="152.5" class="small" text-anchor="middle">89.1%</text><text x="562.0" y="500" class="label" text-anchor="middle">carts</text><rect x="406.0" y="444.6" width="153.5" height="27.4" rx="5" fill="#334155"/><text x="482.8" y="438.6" class="small" text-anchor="middle">7.8%</text><rect x="564.5" y="442.6" width="153.5" height="29.4" rx="5" fill="#0f766e"/><text x="641.2" y="436.6" class="small" text-anchor="middle">8.3%</text><text x="892.0" y="500" class="label" text-anchor="middle">orders</text><rect x="736.0" y="463.7" width="153.5" height="8.3" rx="5" fill="#334155"/><text x="812.8" y="457.7" class="small" text-anchor="middle">2.4%</text><rect x="894.5" y="463.0" width="153.5" height="9.0" rx="5" fill="#0f766e"/><text x="971.2" y="457.0" class="small" text-anchor="middle">2.6%</text><rect x="76" y="516" width="12" height="12" rx="3" fill="#334155"/><text x="94" y="526" class="legend">train</text><rect x="196" y="516" width="12" height="12" rx="3" fill="#0f766e"/><text x="214" y="526" class="legend">test</text></svg>
