<svg xmlns="http://www.w3.org/2000/svg" width="1160" height="560" viewBox="0 0 1160 560" role="img" aria-label="Event Type by Relative Position">
<style>
  .bg { fill: #f8fafc; }
  .panel { fill: #ffffff; stroke: #dbe3ea; stroke-width: 1; }
  .title { font: 700 22px -apple-system, BlinkMacSystemFont, "Segoe UI", sans-serif; fill: #0f172a; }
  .subtitle { font: 13px -apple-system, BlinkMacSystemFont, "Segoe UI", sans-serif; fill: #64748b; }
  .axis { stroke: #94a3b8; stroke-width: 1; }
  .grid { stroke: #e2e8f0; stroke-width: 1; }
  .label { font: 12px -apple-system, BlinkMacSystemFont, "Segoe UI", sans-serif; fill: #475569; }
  .small { font: 11px -apple-system, BlinkMacSystemFont, "Segoe UI", sans-serif; fill: #64748b; }
  .legend { font: 12px -apple-system, BlinkMacSystemFont, "Segoe UI", sans-serif; fill: #334155; }
  .value { font: 700 12px -apple-system, BlinkMacSystemFont, "Segoe UI", sans-serif; fill: #0f172a; }
</style>
<rect class="bg" width="100%" height="100%" rx="16"/>
<rect class="panel" x="16" y="16" width="1128" height="528" rx="14"/>
<text x="32" y="38" class="title">Event Type by Relative Position</text>
<text x="32" y="58" class="subtitle">Where each behavior type appears inside train sessions.</text>
<line x1="76" y1="472.0" x2="1128" y2="472.0" class="grid"/><text x="66" y="476.0" class="small" text-anchor="end">0%</text><line x1="76" y1="396.0" x2="1128" y2="396.0" class="grid"/><text x="66" y="400.0" class="small" text-anchor="end">22%</text><line x1="76" y1="320.0" x2="1128" y2="320.0" class="grid"/><text x="66" y="324.0" class="small" text-anchor="end">43%</text><line x1="76" y1="244.0" x2="1128" y2="244.0" class="grid"/><text x="66" y="248.0" class="small" text-anchor="end">65%</text><line x1="76" y1="168.0" x2="1128" y2="168.0" class="grid"/><text x="66" y="172.0" class="small" text-anchor="end">86%</text><line x1="76" y1="92.0" x2="1128" y2="92.0" class="grid"/><text x="66" y="96.0" class="small" text-anchor="end">108%</text><line x1="76" y1="92" x2="76" y2="472" class="axis"/><line x1="76" y1="472" x2="1128" y2="472" class="axis"/><text x="120.5" y="500" class="label" text-anchor="middle">0-10%</text><rect x="76.0" y="423.2" width="26.3" height="48.8" rx="5" fill="#2563eb"/><rect x="107.3" y="440.4" width="26.3" height="31.6" rx="5" fill="#0f766e"/><rect x="138.7" y="461.3" width="26.3" height="10.7" rx="5" fill="#b45309"/><text x="227.5" y="500" class="label" text-anchor="middle">10-20%</text><rect x="183.0" y="439.5" width="26.3" height="32.5" rx="5" fill="#2563eb"/><rect x="214.3" y="434.6" width="26.3" height="37.4" rx="5" fill="#0f766e"/><rect x="245.7" y="456.3" width="26.3" height="15.7" rx="5" fill="#b45309"/><text x="334.5" y="500" class="label" text-anchor="middle">20-30%</text><rect x="290.0" y="436.5" width="26.3" height="35.5" rx="5" fill="#2563eb"/><rect x="321.3" y="432.5" width="26.3" height="39.5" rx="5" fill="#0f766e"/><rect x="352.7" y="452.0" width="26.3" height="20.0" rx="5" fill="#b45309"/><text x="441.5" y="500" class="label" text-anchor="middle">30-40%</text><rect x="397.0" y="437.5" width="26.3" height="34.5" rx="5" fill="#2563eb"/><rect x="428.3" y="434.7" width="26.3" height="37.3" rx="5" fill="#0f766e"/><rect x="459.7" y="449.5" width="26.3" height="22.5" rx="5" fill="#b45309"/><text x="548.5" y="500" class="label" text-anchor="middle">40-50%</text><rect x="504.0" y="440.6" width="26.3" height="31.4" rx="5" fill="#2563eb"/><rect x="535.3" y="437.0" width="26.3" height="35.0" rx="5" fill="#0f766e"/><rect x="566.7" y="447.3" width="26.3" height="24.7" rx="5" fill="#b45309"/><text x="655.5" y="500" class="label" text-anchor="middle">50-60%</text><rect x="611.0" y="431.6" width="26.3" height="40.4" rx="5" fill="#2563eb"/><rect x="642.3" y="432.6" width="26.3" height="39.4" rx="5" fill="#0f766e"/><rect x="673.7" y="441.3" width="26.3" height="30.7" rx="5" fill="#b45309"/><text x="762.5" y="500" class="label" text-anchor="middle">60-70%</text><rect x="718.0" y="435.6" width="26.3" height="36.4" rx="5" fill="#2563eb"/><rect x="749.3" y="433.8" width="26.3" height="38.2" rx="5" fill="#0f766e"/><rect x="780.7" y="436.9" width="26.3" height="35.1" rx="5" fill="#b45309"/><text x="869.5" y="500" class="label" text-anchor="middle">70-80%</text><rect x="825.0" y="439.1" width="26.3" height="32.9" rx="5" fill="#2563eb"/><rect x="856.3" y="436.8" width="26.3" height="35.2" rx="5" fill="#0f766e"/><rect x="887.7" y="427.0" width="26.3" height="45.0" rx="5" fill="#b45309"/><text x="976.5" y="500" class="label" text-anchor="middle">80-90%</text><rect x="932.0" y="438.2" width="26.3" height="33.8" rx="5" fill="#2563eb"/><rect x="963.3" y="437.8" width="26.3" height="34.2" rx="5" fill="#0f766e"/><rect x="994.7" y="404.1" width="26.3" height="67.9" rx="5" fill="#b45309"/><text x="1083.5" y="500" class="label" text-anchor="middle">90-100%</text><rect x="1039.0" y="446.4" width="26.3" height="25.6" rx="5" fill="#2563eb"/><rect x="1070.3" y="448.2" width="26.3" height="23.8" rx="5" fill="#0f766e"/><rect x="1101.7" y="392.6" width="26.3" height="79.4" rx="5" fill="#b45309"/><rect x="76" y="516" width="12" height="12" rx="3" fill="#2563eb"/><text x="94" y="526" class="legend">clicks</text><rect x="196" y="516" width="12" height="12" rx="3" fill="#0f766e"/><text x="214" y="526" class="legend">carts</text><rect x="316" y="516" width="12" height="12" rx="3" fill="#b45309"/><text x="334" y="526" class="legend">orders</text></svg>
