<svg xmlns="http://www.w3.org/2000/svg" width="1080" height="560" viewBox="0 0 1080 560" role="img" aria-label="Session 长度分布">
<style>
  .bg { fill: #f8fafc; }
  .panel { fill: #ffffff; stroke: #dbe3ea; stroke-width: 1; }
  .title { font: 700 22px -apple-system, BlinkMacSystemFont, "Segoe UI", sans-serif; fill: #0f172a; }
  .subtitle { font: 13px -apple-system, BlinkMacSystemFont, "Segoe UI", sans-serif; fill: #64748b; }
  .axis { stroke: #94a3b8; stroke-width: 1; }
  .grid { stroke: #e2e8f0; stroke-width: 1; }
  .label { font: 12px -apple-system, BlinkMacSystemFont, "Segoe UI", sans-serif; fill: #475569; }
  .small { font: 11px -apple-system, BlinkMacSystemFont, "Segoe UI", sans-serif; fill: #64748b; }
  .legend { font: 12px -apple-system, BlinkMacSystemFont, "Segoe UI", sans-serif; fill: #334155; }
  .value { font: 700 12px -apple-system, BlinkMacSystemFont, "Segoe UI", sans-serif; fill: #0f172a; }
</style>
<rect class="bg" width="100%" height="100%" rx="16"/>
<rect class="panel" x="16" y="16" width="1048" height="528" rx="14"/>
<text x="32" y="38" class="title">Session 长度分布</text>
<text x="32" y="58" class="subtitle">public test split 明显短于 train。</text>
<line x1="76" y1="472.0" x2="1048" y2="472.0" class="grid"/><text x="66" y="476.0" class="small" text-anchor="end">0</text><line x1="76" y1="396.0" x2="1048" y2="396.0" class="grid"/><text x="66" y="400.0" class="small" text-anchor="end">538,744</text><line x1="76" y1="320.0" x2="1048" y2="320.0" class="grid"/><text x="66" y="324.0" class="small" text-anchor="end">1,077,488</text><line x1="76" y1="244.0" x2="1048" y2="244.0" class="grid"/><text x="66" y="248.0" class="small" text-anchor="end">1,616,232</text><line x1="76" y1="168.0" x2="1048" y2="168.0" class="grid"/><text x="66" y="172.0" class="small" text-anchor="end">2,154,976</text><line x1="76" y1="92.0" x2="1048" y2="92.0" class="grid"/><text x="66" y="96.0" class="small" text-anchor="end">2,693,720</text><line x1="76" y1="92" x2="76" y2="472" class="axis"/><line x1="76" y1="472" x2="1048" y2="472" class="axis"/><text x="105.1" y="500" class="label" text-anchor="middle">&lt;= 1</text><rect x="76.0" y="472.0" width="26.6" height="0.0" rx="5" fill="#334155"/><rect x="107.6" y="472.0" width="26.6" height="0.0" rx="5" fill="#0f766e"/><text x="181.2" y="500" class="label" text-anchor="middle">2-2</text><rect x="152.2" y="120.1" width="26.6" height="351.9" rx="5" fill="#334155"/><rect x="183.7" y="407.9" width="26.6" height="64.1" rx="5" fill="#0f766e"/><text x="257.4" y="500" class="label" text-anchor="middle">3-3</text><rect x="228.3" y="244.3" width="26.6" height="227.7" rx="5" fill="#334155"/><rect x="259.9" y="434.2" width="26.6" height="37.8" rx="5" fill="#0f766e"/><text x="333.5" y="500" class="label" text-anchor="middle">4-4</text><rect x="304.5" y="307.4" width="26.6" height="164.6" rx="5" fill="#334155"/><rect x="336.0" y="446.6" width="26.6" height="25.4" rx="5" fill="#0f766e"/><text x="409.7" y="500" class="label" text-anchor="middle">5-5</text><rect x="380.6" y="348.9" width="26.6" height="123.1" rx="5" fill="#334155"/><rect x="412.2" y="454.1" width="26.6" height="17.9" rx="5" fill="#0f766e"/><text x="485.8" y="500" class="label" text-anchor="middle">6-10</text><rect x="456.8" y="129.2" width="26.6" height="342.8" rx="5" fill="#334155"/><rect x="488.3" y="427.5" width="26.6" height="44.5" rx="5" fill="#0f766e"/><text x="562.0" y="500" class="label" text-anchor="middle">11-20</text><rect x="532.9" y="211.3" width="26.6" height="260.7" rx="5" fill="#334155"/><rect x="564.5" y="445.0" width="26.6" height="27.0" rx="5" fill="#0f766e"/><text x="638.2" y="500" class="label" text-anchor="middle">21-50</text><rect x="609.1" y="256.9" width="26.6" height="215.1" rx="5" fill="#334155"/><rect x="640.7" y="456.7" width="26.6" height="15.3" rx="5" fill="#0f766e"/><text x="714.3" y="500" class="label" text-anchor="middle">51-100</text><rect x="685.2" y="388.8" width="26.6" height="83.2" rx="5" fill="#334155"/><rect x="716.8" y="468.9" width="26.6" height="3.1" rx="5" fill="#0f766e"/><text x="790.5" y="500" class="label" text-anchor="middle">101-200</text><rect x="761.4" y="434.8" width="26.6" height="37.2" rx="5" fill="#334155"/><rect x="793.0" y="471.3" width="26.6" height="0.7" rx="5" fill="#0f766e"/><text x="866.6" y="500" class="label" text-anchor="middle">201-500</text><rect x="837.5" y="458.5" width="26.6" height="13.5" rx="5" fill="#334155"/><rect x="869.1" y="471.9" width="26.6" height="0.1" rx="5" fill="#0f766e"/><text x="942.8" y="500" class="label" text-anchor="middle">501-1000</text><rect x="913.7" y="472.0" width="26.6" height="0.0" rx="5" fill="#334155"/><rect x="945.3" y="472.0" width="26.6" height="0.0" rx="5" fill="#0f766e"/><text x="1018.9" y="500" class="label" text-anchor="middle">&gt; 1000</text><rect x="989.8" y="472.0" width="26.6" height="0.0" rx="5" fill="#334155"/><rect x="1021.4" y="472.0" width="26.6" height="0.0" rx="5" fill="#0f766e"/><rect x="76" y="516" width="12" height="12" rx="3" fill="#334155"/><text x="94" y="526" class="legend">train</text><rect x="196" y="516" width="12" height="12" rx="3" fill="#0f766e"/><text x="214" y="526" class="legend">test</text></svg>
